<?xml version="1.0" standalone="no"?><!DOCTYPE svg PUBLIC "-//W3C//DTD SVG 1.1//EN" "http://www.w3.org/Graphics/SVG/1.1/DTD/svg11.dtd"><svg t="1697426810160" class="icon" viewBox="0 0 1024 1024" version="1.1" xmlns="http://www.w3.org/2000/svg" p-id="3905" xmlns:xlink="http://www.w3.org/1999/xlink" width="200" height="200"><path d="M44.4 64A32 32 0 0 0 12 95.6a52.7 52.7 0 0 0 0.4 5.6l135.8 824.2a43.54 43.54 0 0 0 42.6 36.4h651.4a32 32 0 0 0 32-26.8L1010 101.4a32 32 0 0 0-26.4-36.6 49.16 49.16 0 0 0-5.6-0.4L44.4 64z m571.8 595.6h-208l-56.2-294h314.6l-50.4 294z" p-id="3906" fill="#2c2c2c"></path></svg>