<?xml version="1.0" standalone="no"?><!DOCTYPE svg PUBLIC "-//W3C//DTD SVG 1.1//EN" "http://www.w3.org/Graphics/SVG/1.1/DTD/svg11.dtd"><svg t="1698830699026" class="icon" viewBox="0 0 1024 1024" version="1.1" xmlns="http://www.w3.org/2000/svg" p-id="1079" xmlns:xlink="http://www.w3.org/1999/xlink" width="200" height="200"><path d="M653.94265387 69.892064L850.08253973 265.87591147V407.97460267h52.01269867v416.10158826h-52.01269867v52.0126976a78.01904747 78.01904747 0 0 1-78.01904746 78.01904747H251.93650773a78.01904747 78.01904747 0 0 1-78.01904746-78.01904747v-52.0126976H121.9047616V407.97460267h52.01269867V147.91111147a78.01904747 78.01904747 0 0 1 78.01904746-78.01904747h402.00614614zM772.06349227 824.07619093H251.93650773v52.0126976h520.12698454v-52.0126976zM358.69257173 521.54433067H284.96457173v186.07542826h46.81142827v-56.64182826h11.7028576a189.32622187 189.32622187 0 0 0 33.70422827-3.04274347 110.52698453 110.52698453 0 0 0 17.32022826-5.14925653c4.8371808-2.18453333 9.36228587-4.7591616 13.57531414-7.72388587 7.64586667-5.77340907 13.3412576-12.9511616 17.08617173-21.5332576 3.58887573-9.05020907 5.38331413-18.49051413 5.38331413-28.32091413a77.1608384 77.1608384 0 0 0-4.6811424-25.27817174 60.20469867 60.20469867 0 0 0-14.51154346-21.2992 66.16015253 66.16015253 0 0 0-25.51222827-13.57531413 124.5704128 124.5704128 0 0 0-27.15062827-3.51085653z m149.79657067 0h-65.536v186.07542826h65.536c7.33379093-0.1560384 14.6675808-0.78019093 22.00137173-1.8724576 6.5536-1.09226667 12.9511616-2.73066667 19.19268587-4.9152 5.61737173-2.34057173 11.00068587-5.0712384 16.1499424-8.192 4.6811424-3.4328384 8.97219093-7.33379093 12.87314347-11.70285653 3.74491413-4.6811424 7.02171413-9.6743616 9.8304-14.9796576a118.0688256 118.0688256 0 0 0 6.5536-18.0224c2.34057173-10.92266667 3.58887573-22.00137173 3.74491413-33.23611413a188.12993067 188.12993067 0 0 0-1.8724576-22.7035424 120.79949227 120.79949227 0 0 0-4.9152-19.6608 96.6395936 96.6395936 0 0 0-8.192-16.6180576 83.428368 83.428368 0 0 0-11.2347424-13.3412576 83.19431147 83.19431147 0 0 0-14.5115424-10.06445654 99.65633067 99.65633067 0 0 0-17.55428587-6.7876576 149.0163808 149.0163808 0 0 0-32.06582933-3.97897066z m227.7376 0h-124.5184v186.07542826h46.81142933v-70.21714346h67.64251414v-36.27885654h-67.64251414v-42.13028586h77.70697067v-37.4491424z m-220.24777067 37.4491424c5.30529493 0.1560384 10.29851413 1.6384 14.97965654 4.44708586 4.8371808 3.2768 8.81615253 7.48982827 11.93691413 12.63908587 3.4328384 6.24152427 5.85142827 12.79512427 7.25577173 19.6608 1.09226667 6.3975616 1.7164192 12.79512427 1.8724576 19.19268587-0.1560384 6.5536-0.78019093 13.0291808-1.8724576 19.4267424a66.36820267 66.36820267 0 0 1-7.25577173 19.4267424c-3.1207616 4.9932192-7.09973333 9.12822827-11.93691413 12.40502933a29.90730133 29.90730133 0 0 1-14.97965654 3.97897067h-26.2144v-111.1771424h26.2144z m-161.73348586 0c4.21302827 0.1560384 8.3480384 0.93622827 12.40502826 2.34057173 3.58887573 1.4043424 6.7876576 3.4328384 9.59634347 6.08548587 4.9932192 5.46133333 7.48982827 11.85889493 7.48982827 19.1926848 0 7.80190507-2.88670507 14.27748587-8.66011414 19.42674346a30.42742827 30.42742827 0 0 1-10.53257173 5.85142827 51.07646933 51.07646933 0 0 1-12.8731424 1.6384h-19.8948576v-54.53531413h22.46948587z m231.79458986-411.108368L251.93650773 147.91111147v260.0634912h520.12698454v-53.28700907h-185.99741014L586.04007573 147.91111147z m78.01904854 42.3903488v86.39309226h86.445104l-86.445104-86.39309226z" fill="#2c2c2c" p-id="1080"></path></svg>