<?xml version="1.0" standalone="no"?><!DOCTYPE svg PUBLIC "-//W3C//DTD SVG 1.1//EN" "http://www.w3.org/Graphics/SVG/1.1/DTD/svg11.dtd"><svg t="1698830472445" class="icon" viewBox="0 0 1024 1024" version="1.1" xmlns="http://www.w3.org/2000/svg" p-id="1113" xmlns:xlink="http://www.w3.org/1999/xlink" width="200" height="200"><path d="M462.79253333 569.67786667c-8.57813333 0-15.8016 3.38666667-20.3168 8.57813333-6.09493333 6.77226667-7.67466667 14.2208-7.67466666 45.14666667 0 30.9248 1.57973333 38.3744 7.67466666 45.1456 4.51413333 5.19146667 11.73866667 8.57813333 20.3168 8.57813333 8.57706667 0 15.57546667-3.38666667 20.0896-8.57813333 6.09493333-6.77226667 7.9008-14.2208 7.9008-45.1456 0-30.92586667-1.80586667-38.37546667-7.9008-45.14666667-4.51413333-5.19146667-11.51253333-8.57813333-20.0896-8.57813333zM615.16053333 571.0336H585.58933333v42.43733333h29.5712c13.7696 0 22.79893333-8.80426667 22.79893334-21.2192 0-12.41493333-9.02933333-21.21813333-22.79893334-21.21813333zM756.91733333 571.0336h-23.70133333v104.7392h23.7024c10.83413333 0 18.05866667-3.38666667 23.47626667-9.9328 5.8688-7.22346667 6.77226667-18.73493333 6.77226666-43.11466667s-0.90346667-34.5376-6.77226666-41.76106666c-5.41866667-6.54506667-12.64213333-9.93066667-23.47733334-9.93066667z" fill="#2c2c2c" p-id="1114"></path><path d="M894.45013333 336.25173333a43.90613333 43.90613333 0 0 0-0.07253333-2.0096c-0.0192-0.31146667-0.0448-0.62293333-0.0704-0.9344a38.27093333 38.27093333 0 0 0-0.1024-1.0592 38.48533333 38.48533333 0 0 0-0.10026667-0.78506666c-0.05226667-0.3936-0.10666667-0.78506667-0.17066666-1.1744-0.0352-0.21653333-0.0768-0.43306667-0.1152-0.6496a37.9104 37.9104 0 0 0-0.2464-1.26613334c-0.04053333-0.1888-0.0864-0.37546667-0.13013334-0.5632-0.10133333-0.43733333-0.20373333-0.8736-0.31893333-1.3056-0.04906667-0.1856-0.1056-0.37013333-0.15786667-0.55466666a38.60266667 38.60266667 0 0 0-0.37653333-1.26826667c-0.0672-0.21226667-0.14293333-0.4224-0.2144-0.6336a38.53653333 38.53653333 0 0 0-0.40213333-1.14986667c-0.09813333-0.26133333-0.2048-0.52053333-0.30826667-0.7808-0.128-0.32213333-0.25386667-0.64426667-0.3904-0.96213333-0.1376-0.32213333-0.28693333-0.63893333-0.43306667-0.95786667-0.1152-0.2496-0.2272-0.50133333-0.34773333-0.7488a36.61653333 36.61653333 0 0 0-0.56213333-1.09653333c-0.10133333-0.19306667-0.19946667-0.38826667-0.304-0.5792a38.16533333 38.16533333 0 0 0-0.66666667-1.1584c-0.096-0.16213333-0.1888-0.32533333-0.28693333-0.48533333a39.104 39.104 0 0 0-0.7328-1.1424c-0.10346667-0.1568-0.20373333-0.31466667-0.3104-0.4704-0.24533333-0.35946667-0.50026667-0.7136-0.7584-1.06666667-0.12586667-0.17173333-0.2496-0.34453333-0.3776-0.51413333-0.24213333-0.32-0.49386667-0.63573333-0.74666667-0.9504-0.16-0.19946667-0.32106667-0.39893333-0.48533333-0.5952a36.57173333 36.57173333 0 0 0-0.71146667-0.82026667 36.95573333 36.95573333 0 0 0-2.01493333-2.1152c-0.112-0.1088-0.2176-0.22293333-0.33066667-0.33173333l-244.9696-233.22666667c-0.10773333-0.1024-0.21973333-0.19626667-0.32853333-0.29653333a41.57333333 41.57333333 0 0 0-3.03253334-2.5568c-0.23786667-0.18026667-0.48-0.3552-0.72106666-0.5312-0.29013333-0.21013333-0.58026667-0.42026667-0.87466667-0.62186667-0.2208-0.15146667-0.44586667-0.29653333-0.66986667-0.44266667a39.81866667 39.81866667 0 0 0-0.9632-0.6176c-0.21226667-0.13013333-0.4288-0.25386667-0.64426666-0.3808a40.7296 40.7296 0 0 0-1.02186667-0.58773333c-0.2208-0.12053333-0.4448-0.23466667-0.66773333-0.35093333-0.3424-0.1792-0.68373333-0.35946667-1.02933334-0.52693334-0.24746667-0.12053333-0.4992-0.23253333-0.74986666-0.34773333-0.32533333-0.1504-0.6496-0.30186667-0.97813334-0.44266667-0.29013333-0.1248-0.5856-0.23893333-0.88-0.35626666-0.29333333-0.11733333-0.5856-0.23786667-0.88106666-0.34773334-0.33386667-0.12373333-0.67306667-0.23786667-1.01226667-0.35306666-0.2624-0.0896-0.52266667-0.1824-0.78613333-0.26666667-0.3648-0.11626667-0.73386667-0.2208-1.10293334-0.3264-0.24426667-0.06933333-0.48746667-0.14293333-0.7328-0.208-0.37653333-0.10026667-0.75733333-0.1888-1.13813333-0.27733333-0.24533333-0.0576-0.4896-0.11733333-0.736-0.1696a38.85013333 38.85013333 0 0 0-1.11573333-0.21546667c-0.26666667-0.04906667-0.53333333-0.0992-0.8-0.14293333-0.3488-0.05653333-0.69973333-0.10346667-1.05066667-0.1504-0.3008-0.04053333-0.60053333-0.08106667-0.9024-0.1152-0.32106667-0.0352-0.64426667-0.064-0.96853333-0.09173334a40.29013333 40.29013333 0 0 0-1.0112-0.0768 41.92426667 41.92426667 0 0 0-1.9872-0.0704c-0.14293333-0.00106667-0.2848-0.01066667-0.4288-0.01066666-0.15253333 0-0.30186667 0.0096-0.45333334 0.01173333a39.2 39.2 0 0 0-2.94613333 0.144c-0.35413333 0.02986667-0.70613333 0.06293333-1.05706667 0.10133333-0.26346667 0.02986667-0.5248 0.06506667-0.7872 0.10026667-0.32853333 0.04373333-0.65706667 0.08426667-0.9824 0.13546667a39.69066667 39.69066667 0 0 0-5.60853333-0.4032H230.67733333c-55.76746667 0-101.13813333 45.37066667-101.13813333 101.13813333v693.60426667c0 55.76853333 45.37066667 101.14026667 101.13813333 101.14026666h562.64533334c55.76746667 0 101.13813333-45.37173333 101.13813333-101.14026666V336.70506667c0.00106667-0.15146667-0.0096-0.30186667-0.01066667-0.45333334zM649.48906667 195.54666667l106.9088 101.7824h-84.70293334c-12.24426667 0-22.20586667-9.96053333-22.20586666-22.2048v-79.5776z m-441.0176-30.30506667c0-12.24426667 9.9616-22.2048 22.2048-22.2048h339.8784v132.08746667c0 55.76746667 45.37066667 101.13813333 101.1392 101.13813333h143.8336v84.24106667H208.47146667V165.2416zM675.88266667 703.7632h-36.3424l-31.37706667-64.1088H585.58933333v64.1088h-31.37706666V543.04213333h62.9792c32.73173333 0 52.14506667 22.34773333 52.14506666 49.21066667 0 22.5728-13.7696 36.56853333-29.34613333 42.2112l35.89226667 69.2992zM506.13333333 687.5104c-11.2864 11.28746667-25.056 17.60746667-43.3408 17.60746667s-32.28053333-6.32-43.56693333-17.60746667c-16.2528-16.25173333-15.80053333-36.3424-15.80053333-64.10773333s-0.45226667-47.85493333 15.80053333-64.1088c11.2864-11.2864 25.28213333-17.60746667 43.56693333-17.60746667s32.0544 6.32106667 43.3408 17.60746667c16.25173333 16.2528 16.02666667 36.3424 16.02666667 64.1088 0 27.76533333 0.22506667 47.856-16.02666667 64.10773333zM226.22613333 543.04213333l24.83093334 101.35466667 29.34506666-101.35466667h23.47626667l29.34613333 101.35466667 25.056-101.35466667h32.73173334l-43.11573334 160.72213334h-26.18453333l-29.5712-97.5168-29.5712 97.5168H236.384l-42.8896-160.72213334h32.73173333z m589.3024 315.80373334c0 12.24426667-9.9616 22.20693333-22.2048 22.20693333H230.67733333c-12.24426667 0-22.2048-9.96266667-22.2048-22.20693333v-58.54933334h607.056v58.54933334z m-13.23946666-170.432c-10.60906667 10.60906667-25.73333333 15.3504-42.43733334 15.3504h-58.01386666V543.04213333h58.01386666c16.704 0 31.82826667 4.74026667 42.43733334 15.3504 18.05866667 18.05866667 16.2528 40.18026667 16.2528 64.33386667 0.00106667 24.15253333 1.80586667 47.6288-16.2528 65.68746667z" fill="#2c2c2c" p-id="1115"></path></svg>