<?xml version="1.0" standalone="no"?><!DOCTYPE svg PUBLIC "-//W3C//DTD SVG 1.1//EN" "http://www.w3.org/Graphics/SVG/1.1/DTD/svg11.dtd"><svg t="1698830628019" class="icon" viewBox="0 0 1024 1024" version="1.1" xmlns="http://www.w3.org/2000/svg" p-id="1079" xmlns:xlink="http://www.w3.org/1999/xlink" width="200" height="200"><path d="M653.94265387 69.892064L850.08253973 265.87591147V407.97460267h52.01269867v416.10158826h-52.01269867v52.0126976a78.01904747 78.01904747 0 0 1-78.01904746 78.01904747H251.93650773a78.01904747 78.01904747 0 0 1-78.01904746-78.01904747v-52.0126976H121.9047616V407.97460267h52.01269867V147.91111147a78.01904747 78.01904747 0 0 1 78.01904746-78.01904747h402.00614614zM772.06349227 824.07619093H251.93650773v52.0126976h520.12698454v-52.0126976z m-258.45109867-307.21300373a89.25379093 89.25379093 0 0 0-36.0448 7.95794347 85.3528384 85.3528384 0 0 0-29.2571424 22.23542826c-8.4260576 10.29851413-14.5895616 21.84533333-18.4905152 34.64045654-2.80868587 10.92266667-4.29104747 22.00137173-4.4470848 33.2361152 0 11.3907808 1.4823616 22.46948587 4.4470848 33.23611413 3.58887573 12.79512427 9.5963424 24.3419424 18.0224 34.64045653 8.1139808 9.20624747 17.7883424 16.4620192 29.02308587 21.76731414 11.7028576 4.9932192 23.95184747 7.56784747 36.74697173 7.72388586a95.1832384 95.1832384 0 0 0 36.51291413-7.72388586 86.28906667 86.28906667 0 0 0 28.78902827-21.76731414 99.34425387 99.34425387 0 0 0 18.0224-34.64045653 159.1588576 159.1588576 0 0 0 4.44708587-33.23611413 159.1588576 159.1588576 0 0 0-4.44708587-33.2361152 99.34425387 99.34425387 0 0 0-18.0224-34.64045654 83.6364192 83.6364192 0 0 0-28.78902827-22.23542826c-11.7028576-5.1492576-23.87382827-7.80190507-36.51291413-7.95794347z m193.0971424 0a133.82867307 133.82867307 0 0 0-21.0651424 2.10651413 111.2551616 111.2551616 0 0 0-18.95862827 5.85142934 86.6271488 86.6271488 0 0 0-30.66148586 22.23542826 95.44330133 95.44330133 0 0 0-18.49051414 34.64045654c-2.80868587 10.92266667-4.29104747 22.00137173-4.44708586 33.2361152 0 11.5468192 1.4823616 22.7815616 4.44708586 33.70422826 2.02849493 6.5536 4.6811424 12.8731424 7.9579424 18.95862827 3.1207616 5.61737173 6.7876576 10.84464747 11.00068587 15.68182827 8.73813333 9.36228587 19.11466667 16.5400384 31.1296 21.5332576a110.96909227 110.96909227 0 0 0 40.25782827 7.48982826c10.14247573-0.1560384 20.12891413-1.4043424 29.95931413-3.74491413 7.80190507-1.8724576 15.29173333-4.60312427 22.46948587-8.192l-11.70285654-36.0448a68.47471787 68.47471787 0 0 1-18.2564576 6.31954347 101.19070507 101.19070507 0 0 1-19.4267424 1.87245653c-6.86567573 0-13.41927573-1.4823616-19.6608-4.44708587a56.17371413 56.17371413 0 0 1-17.08617173-13.1072 59.47652053 59.47652053 0 0 1-14.27748587-40.02377066c0-7.17775253 0.85820907-14.27748587 2.57462827-21.2992 2.02849493-7.64586667 5.61737173-14.5895616 10.76662933-20.83108587 4.8371808-5.30529493 10.61059093-9.36228587 17.32022827-12.17097173 7.02171413-2.49660907 14.35550507-3.82293333 22.00137173-3.97897174 12.9511616-0.1560384 25.59024747 2.10651413 37.91725654 6.7876576l1.6384-37.21508586a119.3691424 119.3691424 0 0 0-45.40708587-9.36228587z m-382.21531413 4.68114347h-65.536v186.07542826h65.536c7.33379093-0.1560384 14.6675808-0.78019093 22.00137173-1.8724576 6.5536-1.09226667 12.9511616-2.73066667 19.19268587-4.9152 5.61737173-2.34057173 11.00068587-5.0712384 16.1499424-8.192 4.6811424-3.4328384 8.97219093-7.33379093 12.87314346-11.70285653 3.74491413-4.6811424 7.02171413-9.6743616 9.8304-14.9796576a118.0688256 118.0688256 0 0 0 6.5536-18.0224c2.34057173-10.92266667 3.58887573-22.00137173 3.74491414-33.23611413a188.12993067 188.12993067 0 0 0-1.8724576-22.7035424 120.79949227 120.79949227 0 0 0-4.9152-19.6608 96.6395936 96.6395936 0 0 0-8.192-16.6180576 83.428368 83.428368 0 0 0-11.2347424-13.3412576 83.19431147 83.19431147 0 0 0-14.51154347-10.06445654 99.65633067 99.65633067 0 0 0-17.5542848-6.7876576 149.0163808 149.0163808 0 0 0-32.06582933-3.97897066z m189.11817173 36.0448c5.77340907 0.1560384 11.2347424 1.5603808 16.384 4.21302826 5.46133333 3.1207616 9.9864384 7.25577173 13.57531413 12.40502827 4.05699093 6.24152427 6.94369493 13.0291808 8.66011414 20.36297173 1.4043424 6.7096384 2.18453333 13.49729493 2.34057173 20.36297174-0.1560384 7.02171413-0.93622827 13.88739093-2.34057173 20.59702826a63.9756192 63.9756192 0 0 1-8.66011414 20.12891414 45.9532192 45.9532192 0 0 1-13.57531413 12.17097173 35.29061547 35.29061547 0 0 1-16.384 3.97897067 37.18907947 37.18907947 0 0 1-16.85211413-3.97897067 41.24606933 41.24606933 0 0 1-13.80937174-12.17097173 63.9756192 63.9756192 0 0 1-8.66011413-20.12891414 100.28048213 100.28048213 0 0 1 0-40.72594346 63.7155552 63.7155552 0 0 1 8.66011413-20.36297067c3.74491413-5.1492576 8.3480384-9.28426667 13.80937174-12.40502933 5.30529493-2.80868587 10.92266667-4.29104747 16.85211413-4.4470848z m-181.6283424 1.4043424c5.30529493 0.1560384 10.29851413 1.6384 14.97965653 4.44708586 4.8371808 3.2768 8.81615253 7.48982827 11.93691414 12.63908587 3.4328384 6.24152427 5.85142827 12.79512427 7.25577173 19.6608 1.09226667 6.3975616 1.7164192 12.79512427 1.8724576 19.19268587-0.1560384 6.5536-0.78019093 13.0291808-1.8724576 19.4267424a66.36820267 66.36820267 0 0 1-7.25577173 19.4267424c-3.1207616 4.9932192-7.09973333 9.12822827-11.93691414 12.40502933a29.90730133 29.90730133 0 0 1-14.97965653 3.97897067H305.7696512v-111.1771424h26.2144z m254.05602453-411.108368L251.93650773 147.91111147v260.0634912h520.12698454v-53.28700907h-185.99741014L586.04007573 147.91111147z m78.01904854 42.3903488v86.39309226h86.445104l-86.445104-86.39309226z" fill="#2c2c2c" p-id="1080"></path></svg>