<?xml version="1.0" standalone="no"?><!DOCTYPE svg PUBLIC "-//W3C//DTD SVG 1.1//EN" "http://www.w3.org/Graphics/SVG/1.1/DTD/svg11.dtd"><svg t="1698830750850" class="icon" viewBox="0 0 1024 1024" version="1.1" xmlns="http://www.w3.org/2000/svg" p-id="1079" xmlns:xlink="http://www.w3.org/1999/xlink" width="200" height="200"><path d="M653.94265387 69.892064L850.08253973 265.87591147V407.97460267h52.01269867v416.10158826h-52.01269867v52.0126976a78.01904747 78.01904747 0 0 1-78.01904746 78.01904747H251.93650773a78.01904747 78.01904747 0 0 1-78.01904746-78.01904747v-52.0126976H121.9047616V407.97460267h52.01269867V147.91111147a78.01904747 78.01904747 0 0 1 78.01904746-78.01904747h402.00614614zM772.06349227 824.07619093H251.93650773v52.0126976h520.12698454v-52.0126976z m-84.13053974-306.90092693a130.811936 130.811936 0 0 0-31.1296 4.6811424c-12.48304747 4.18702187-23.45772693 10.66260267-32.9760512 19.3747296-9.36228587 9.18024107-16.4620192 19.8428448-21.3252064 31.98781013a114.37592427 114.37592427 0 0 0-5.59136426 19.8688512 130.39583467 130.39583467 0 0 0 2.57462826 55.83563094c2.02849493 6.5275936 4.6811424 12.847136 7.9579424 18.90661653 3.1207616 5.46133333 6.7616512 10.66260267 11.00068587 15.65582187 8.58209493 9.18024107 18.72457173 16.2799744 30.42742827 21.2471872 12.30100267 4.8371808 25.09612693 7.33379093 38.35936533 7.48982826a138.22374613 138.22374613 0 0 0 33.93828587-4.6811424c11.2347424-2.80868587 21.5332576-7.54184107 30.8955424-14.25147946v-93.2067552h-63.19542827v35.29061546h17.08617173v38.07329494c-5.1492576 1.09226667-10.29851413 1.5603808-15.44777173 1.40434346a45.7971808 45.7971808 0 0 1-35.784736-16.5920512 59.84060907 59.84060907 0 0 1-10.29851413-21.2731936 93.90892693 93.90892693 0 0 1 0-43.43060266c2.34057173-7.9579424 6.08548587-15.10968853 11.2347424-21.5072512 4.9672128-5.59136533 10.81864107-9.960432 17.52827946-13.0811936 6.86567573-2.78267947 14.04342827-4.26504107 21.53325654-4.42107947a125.71469227 125.71469227 0 0 1 46.1092576 8.1659936l1.17028586-36.43489493a147.5600256 147.5600256 0 0 0-25.98034346-6.5536c-9.36228587-1.5603808-18.72457173-2.39258453-28.08685654-2.54862187z m-338.86273066 4.6811424H275.34222187v185.68533333h46.81142933v-56.53780373h11.70285653c11.2347424 0 22.46948587-1.01424747 33.70422827-3.016736 5.92944747-1.24830507 11.7028576-2.96472427 17.32022933-5.1492576 4.8371808-2.18453333 9.36228587-4.7591616 13.57531414-7.6978784 7.61986027-5.77340907 13.3152512-12.9251552 17.06016533-21.5072512 3.58887573-9.02420267 5.38331413-18.46450773 5.38331413-28.26890133a76.874768 76.874768 0 0 0-4.68114346-25.22615894 60.07466667 60.07466667 0 0 0-14.485536-21.2471872 66.18615893 66.18615893 0 0 0-25.51222827-13.52330133 124.7524576 124.7524576 0 0 0-27.15062933-3.536864z m153.51547946 0h-69.28091413v185.68533333h46.81142827v-136.1692448h0.70217173l31.1296 136.1692448h70.21714347v-185.68533333h-46.81142934v142.6968384h-0.70217066l-32.06582934-142.7228448z m-157.96256533 37.34511787c4.21302827 0.1560384 8.322032 0.93622827 12.40502933 2.34057066 3.58887573 1.4043424 6.7616512 3.4328384 9.5963424 6.08548587 4.9932192 5.46133333 7.48982827 11.83288853 7.48982827 19.14067307 0 7.80190507-2.88670507 14.25147947-8.66011413 19.40073706a30.42742827 30.42742827 0 0 1-10.53257067 5.82542187 51.18049493 51.18049493 0 0 1-12.87314347 1.6384H322.1536512v-54.43128853h22.4694848zM586.04007573 147.91111147L251.93650773 147.91111147v260.0634912h520.12698454v-53.28700907h-185.99741014L586.04007573 147.91111147z m78.01904854 42.3903488v86.39309226h86.445104l-86.445104-86.39309226z" fill="#2c2c2c" p-id="1080"></path></svg>