<?xml version="1.0" standalone="no"?><!DOCTYPE svg PUBLIC "-//W3C//DTD SVG 1.1//EN" "http://www.w3.org/Graphics/SVG/1.1/DTD/svg11.dtd"><svg t="1698830584126" class="icon" viewBox="0 0 1024 1024" version="1.1" xmlns="http://www.w3.org/2000/svg" p-id="1113" xmlns:xlink="http://www.w3.org/1999/xlink" width="200" height="200"><path d="M653.31139318 71.85658311l195.2681529 195.1128083v141.46795141H900.36148148V822.68918518h-51.7819354v51.78193541a77.6722963 77.6722963 0 0 1-77.6722963 77.6722963H253.09275022a77.6722963 77.6722963 0 0 1-77.6722963-77.6722963V822.68918518H123.63851852V408.43734282h51.7819354V149.52887941a77.6722963 77.6722963 0 0 1 77.6722963-77.6722963h400.21864296zM770.90724978 822.68918518H253.09275022v51.78193541h517.81449956V822.68918518zM420.19134578 521.73452325H280.14819555v37.04968534h46.83639467v147.96572444h46.60337778V558.78542222h46.60337778v-37.04968533z m55.22500267-0.23301688h-49.16656356l48.46751289 90.64356978-53.36086756 94.60485688H471.22204445l35.88460088-67.57489778 35.88460089 67.57489778h49.86561423l-53.36086756-94.60485688 48.46751289-90.64356978H538.79694222l-31.69029689 64.07964445-31.69029688-64.07964445z m258.64874666 0.23301688H594.02194489v37.04968534h46.83639466v147.96572444h46.60337778V558.78542222h46.60337778v-37.04968533z m-148.35408593-372.23113007l-332.61947259 0.02548623v258.90846341h517.81571319v-53.05017837H585.73649541l-0.02548623-205.85828504z m77.6722963 42.20154312v86.00993185h86.0609043l-86.0609043-86.00993185z" fill="#2c2c2c" p-id="1114"></path></svg>