<?xml version="1.0" standalone="no"?><!DOCTYPE svg PUBLIC "-//W3C//DTD SVG 1.1//EN" "http://www.w3.org/Graphics/SVG/1.1/DTD/svg11.dtd"><svg t="1698830725316" class="icon" viewBox="0 0 1024 1024" version="1.1" xmlns="http://www.w3.org/2000/svg" p-id="1079" xmlns:xlink="http://www.w3.org/1999/xlink" width="200" height="200"><path d="M653.94265387 69.892064L850.08253973 265.87591147V407.97460267h52.01269867v416.10158826h-52.01269867v52.0126976a78.01904747 78.01904747 0 0 1-78.01904746 78.01904747H251.93650773a78.01904747 78.01904747 0 0 1-78.01904746-78.01904747v-52.0126976H121.9047616V407.97460267h52.01269867V147.91111147a78.01904747 78.01904747 0 0 1 78.01904746-78.01904747h402.00614614zM772.06349227 824.07619093H251.93650773v52.0126976h520.12698454v-52.0126976zM315.4180064 517.20126933h-39.5296512v129.8497024c0 5.0192256-0.65015893 9.960432-1.97648213 14.8236192a31.98780907 31.98780907 0 0 1-5.92944747 11.2607488c-3.2768 3.3028064-7.09973333 5.72139733-11.4427936 7.33379094-4.10900267 1.30031787-8.3740448 2.23654613-12.87314347 2.756672L238.93333333 714.84952427a143.03492053 143.03492053 0 0 0 29.2571424-2.96472427c5.25328213-1.19629227 10.40253973-2.75667307 15.42176534-4.7331552a67.3564448 67.3564448 0 0 0 11.85889493-7.12573973c6.83966933-5.27928853 11.91090773-11.85889493 15.2137152-19.7648256 3.146768-8.4260576 4.7331552-17.19019733 4.7331552-26.2664128V517.20126933z m409.26191787 2.91271147c-10.24650133 0.28606933-20.28495253 1.8204448-30.06333974 4.52510507a88.2915552 88.2915552 0 0 0-31.83177173 18.72457173c-9.05020907 8.89417173-15.88987947 19.21869227-20.54501547 30.9475552-2.41859093 6.3455488-4.23903467 12.74311147-5.46133333 19.21869227a126.3128384 126.3128384 0 0 0 2.49660907 53.9891808c1.97648213 6.3195424 4.52510507 12.40502827 7.69787946 18.28246293 2.99073067 5.27928853 6.5536 10.32452053 10.61058987 15.135696 8.2700192 8.89417173 18.0744128 15.73384107 29.36116907 20.54501547 11.88490133 4.6811424 24.23791787 7.09973333 37.03304106 7.22976533a133.15250773 133.15250773 0 0 0 32.768-4.49909867c10.84464747-2.73066667 20.77907307-7.30778453 29.80327574-13.78336533v-90.1380064h-60.98488854v34.12033067h16.4880256v36.82498986c-4.9412064 1.04025387-9.9344256 1.4823616-14.9016384 1.35233067a44.1847872 44.1847872 0 0 1-34.5624384-16.04591787c-4.6811424-6.16350507-7.9839488-13.0031744-9.93442453-20.54501546a90.97020907 90.97020907 0 0 1 0-42.02626027c2.26255253-7.67187307 5.87743467-14.615568 10.84464747-20.77907307 4.8111744-5.40932053 10.45455253-9.6223488 16.93013333-12.63908586 6.6316192-2.73066667 13.54930773-4.16101547 20.80507947-4.29104747a121.1375744 121.1375744 0 0 1 44.47085653 7.9059296l1.14427947-35.23860267a142.20271787 142.20271787 0 0 0-25.07012054-6.3455488 183.240736 183.240736 0 0 0-27.09861546-2.47060373z m-301.5696256 4.52510507h-71.15337174v179.57384106h45.17302827v-54.66534613h11.31276267c10.81864107 0 21.66328853-0.98824107 32.507936-2.9387168 5.72139733-1.19629227 11.3127616-2.86069867 16.72208213-4.9672128 4.6811424-2.10651413 9.02420267-4.60312427 13.1072-7.46382293a51.49257173 51.49257173 0 0 0 16.4880256-20.77907307c3.4588448-8.73813333 5.20126933-17.8403552 5.2012704-27.30666667a74.45617813 74.45617813 0 0 0-4.52510507-24.4199616 58.09818453 58.09818453 0 0 0-14.01742186-20.54501546 63.8455872 63.8455872 0 0 0-24.6020064-13.1072 120.20134613 120.20134613 0 0 0-26.2144-3.3808256z m201.4971936 0h-120.17533974v179.57384106h120.40939627V668.03809493h-75.236368v-38.85348586h65.27593707v-32.507936h-65.27593707v-35.9407744h75.00231147v-36.1488256z m-205.78824107 36.1488256c4.05699093 0.130032 8.061968 0.88421547 11.96292053 2.23654613 3.4848512 1.35233067 6.5536 3.3288128 9.28426667 5.87743467 4.8111744 5.27928853 7.20375893 11.4427936 7.20375893 18.51652053 0 7.54184107-2.78267947 13.78336533-8.322032 18.75057813-3.0427424 2.57462827-6.423568 4.42107947-10.1944896 5.64337707-4.05699093 1.04025387-8.192 1.5863872-12.40502826 1.5863872h-19.21869227v-52.63685013h21.689296z m167.22082453-412.9028064L251.93650773 147.91111147v260.0634912h520.12698454v-53.28700907h-185.99741014L586.04007573 147.91111147z m78.01904854 42.3903488v86.39309226h86.445104l-86.445104-86.39309226z" fill="#2c2c2c" p-id="1080"></path></svg>