<?xml version="1.0" standalone="no"?><!DOCTYPE svg PUBLIC "-//W3C//DTD SVG 1.1//EN" "http://www.w3.org/Graphics/SVG/1.1/DTD/svg11.dtd"><svg t="1698888368682" class="icon" viewBox="0 0 1024 1024" version="1.1" xmlns="http://www.w3.org/2000/svg" p-id="1080" xmlns:xlink="http://www.w3.org/1999/xlink" width="200" height="200"><path d="M538.576 594.0864c0-15.4144-10.6304-26.04586667-27.37386667-26.04586667H476.65066667v51.82613334h34.55146666c16.74346667 0 27.37386667-10.36586667 27.37386667-25.78026667z" fill="#231815" p-id="1081"></path><path d="M894.45013333 336.25173333a43.90613333 43.90613333 0 0 0-0.07253333-2.0096c-0.0192-0.31146667-0.0448-0.62293333-0.0704-0.9344a38.27093333 38.27093333 0 0 0-0.1024-1.0592 38.48533333 38.48533333 0 0 0-0.10026667-0.78506666c-0.05226667-0.3936-0.10666667-0.78506667-0.17066666-1.1744-0.0352-0.21653333-0.0768-0.43306667-0.1152-0.6496a37.9104 37.9104 0 0 0-0.2464-1.26613334c-0.04053333-0.1888-0.0864-0.37546667-0.13013334-0.5632-0.10133333-0.43733333-0.20373333-0.8736-0.31893333-1.3056-0.04906667-0.1856-0.1056-0.37013333-0.15786667-0.55466666a38.60266667 38.60266667 0 0 0-0.37653333-1.26826667c-0.0672-0.21226667-0.14293333-0.4224-0.2144-0.6336a38.53653333 38.53653333 0 0 0-0.40213333-1.14986667c-0.09813333-0.26133333-0.2048-0.52053333-0.30826667-0.7808-0.128-0.32213333-0.25386667-0.64426667-0.3904-0.96213333-0.1376-0.32213333-0.28693333-0.63893333-0.43306667-0.95786667-0.1152-0.2496-0.2272-0.50133333-0.34773333-0.7488a36.61653333 36.61653333 0 0 0-0.56213333-1.09653333c-0.10133333-0.19306667-0.19946667-0.38826667-0.304-0.5792a38.16533333 38.16533333 0 0 0-0.66666667-1.1584c-0.096-0.16213333-0.1888-0.32533333-0.28693333-0.48533333a39.104 39.104 0 0 0-0.7328-1.1424c-0.10346667-0.1568-0.20373333-0.31466667-0.3104-0.4704-0.24533333-0.35946667-0.50026667-0.7136-0.7584-1.06666667-0.12586667-0.17173333-0.2496-0.34453333-0.3776-0.51413333-0.24213333-0.32-0.49386667-0.63573333-0.74666667-0.9504-0.16-0.19946667-0.32106667-0.39893333-0.48533333-0.5952a36.57173333 36.57173333 0 0 0-0.71146667-0.82026667 36.95573333 36.95573333 0 0 0-2.01493333-2.1152c-0.112-0.1088-0.2176-0.22293333-0.33066667-0.33173333l-244.9696-233.22666667c-0.10773333-0.1024-0.21973333-0.19626667-0.32853333-0.29653333a41.1136 41.1136 0 0 0-3.0336-2.5568c-0.2368-0.18026667-0.47893333-0.3552-0.72-0.53013334-0.29013333-0.21013333-0.58026667-0.42026667-0.8736-0.62186666-0.22186667-0.15146667-0.44693333-0.2976-0.672-0.4448a38.42133333 38.42133333 0 0 0-0.96-0.61546667c-0.2144-0.1312-0.43306667-0.256-0.6496-0.384-0.33706667-0.1984-0.67413333-0.3968-1.01546667-0.58346667-0.224-0.12266667-0.45333333-0.23893333-0.67946667-0.35733333-0.33813333-0.17706667-0.6752-0.35413333-1.01546666-0.52053333-0.25493333-0.12373333-0.51306667-0.23893333-0.7712-0.35733334-0.31786667-0.14613333-0.63466667-0.2944-0.95573334-0.432-0.29973333-0.128-0.6048-0.2464-0.90773333-0.368-0.28373333-0.11306667-0.5664-0.2304-0.85226667-0.336-0.34453333-0.128-0.69546667-0.24533333-1.04426666-0.3648-0.25066667-0.08533333-0.50026667-0.17493333-0.752-0.25493333-0.3776-0.12053333-0.75946667-0.22826667-1.14133334-0.33706667-0.2304-0.06613333-0.45973333-0.1344-0.6912-0.19626666-0.3904-0.10346667-0.78613333-0.1952-1.1808-0.288-0.2304-0.05333333-0.4608-0.11093333-0.69226666-0.16-0.384-0.08213333-0.7712-0.1536-1.15946667-0.224-0.25066667-0.04586667-0.50133333-0.09386667-0.75413333-0.1344-0.36266667-0.05866667-0.72853333-0.1088-1.0944-0.1568-0.28586667-0.0384-0.57066667-0.0768-0.85653334-0.1088a39.62986667 39.62986667 0 0 0-1.01226666-0.096c-0.32213333-0.02773333-0.6432-0.05333333-0.96533334-0.0736a42.29333333 42.29333333 0 0 0-1.984-0.07146667c-0.1504-0.00213333-0.29973333-0.01173333-0.4512-0.01173333-0.16 0-0.31786667 0.01066667-0.47786666 0.01173333a40.15146667 40.15146667 0 0 0-2.89173334 0.1408c-0.3712 0.03093333-0.74133333 0.06506667-1.10933333 0.10666667-0.2432 0.02773333-0.4864 0.0608-0.7296 0.0928-0.34026667 0.0448-0.6816 0.08746667-1.01866667 0.1408a39.69066667 39.69066667 0 0 0-5.60853333-0.4032H230.67733333c-55.76853333 0-101.1392 45.37066667-101.1392 101.13813333v693.60426667c0 55.76853333 45.37066667 101.14026667 101.1392 101.14026666h562.64533334c55.76853333 0 101.13813333-45.37173333 101.13813333-101.14026666V336.70506667c0.00106667-0.15146667-0.0096-0.30186667-0.01066667-0.45333334zM649.488 195.54666667l106.90986667 101.7824h-84.70293334c-12.24426667 0-22.20693333-9.96053333-22.20693333-22.2048v-79.5776z m166.04053333 663.2992c0 12.24426667-9.9616 22.20693333-22.2048 22.20693333H230.67733333c-12.24426667 0-22.20586667-9.96266667-22.20586666-22.20693333v-58.54933334h607.056v58.54933334zM282.64 706.5088l24.4512-24.1856c6.112 6.112 11.95946667 10.6304 24.1856 10.6304 18.07146667 0 29.7664-10.6304 29.7664-32.42346667V535.08586667h36.94186667v127.03893333c0 41.72586667-31.62666667 63.7856-66.70826667 63.7856-20.46506667-0.00106667-34.5504-5.31626667-48.6368-19.4016z m157.06986667 17.80586667V535.08586667h73.3536c39.06773333 0 62.45653333 26.84266667 62.45653333 59.00053333s-23.3888 59.00053333-62.45653333 59.00053333H476.65066667v71.22666667h-36.9408z m179.1296-170.09386667c13.28853333-13.28853333 29.7664-20.73066667 51.02826666-20.73066667 43.85173333 0 66.17706667 28.70293333 71.22666667 60.59626667h-37.20853333c-4.25173333-17.80586667-15.1488-27.64053333-34.0192-27.64053333-10.0992 0-18.33813333 3.9872-23.6544 10.10026666-7.17546667 7.97333333-9.03573333 16.74346667-9.03573334 53.15413334s1.86026667 45.4464 9.03573334 53.41973333c5.3152 6.112 13.5552 9.8336 23.6544 9.8336 11.16266667 0 20.19946667-3.98613333 26.31146666-10.6304 6.112-6.91093333 8.50453333-15.4144 8.50453334-25.24906667v-7.17546666H669.86666667v-30.82986667h71.49226666v27.64053333c0 27.37386667-4.784 43.85173333-18.07253333 57.67146667-15.1488 15.68106667-33.22133333 21.52853333-53.41973333 21.52853333-20.73066667 0-37.73973333-7.44213333-51.02826667-20.73066666-19.13493333-19.13493333-18.60373333-42.78933333-18.60373333-75.47946667s-0.53013333-56.34346667 18.6048-75.4784z m196.68906666-93.71733333H208.47146667V165.2416c0-12.24426667 9.9616-22.2048 22.20586666-22.2048h339.87733334v132.08746667c0 55.76746667 45.37173333 101.13813333 101.14026666 101.13813333h143.8336v84.24106667z" fill="#231815" p-id="1082"></path></svg>