<?xml version="1.0" standalone="no"?><!DOCTYPE svg PUBLIC "-//W3C//DTD SVG 1.1//EN" "http://www.w3.org/Graphics/SVG/1.1/DTD/svg11.dtd"><svg t="1698830665438" class="icon" viewBox="0 0 1024 1024" version="1.1" xmlns="http://www.w3.org/2000/svg" p-id="1079" xmlns:xlink="http://www.w3.org/1999/xlink" width="200" height="200"><path d="M653.94265387 69.892064L850.08253973 265.87591147V407.97460267h52.01269867v416.10158826h-52.01269867v52.0126976a78.01904747 78.01904747 0 0 1-78.01904746 78.01904747H251.93650773a78.01904747 78.01904747 0 0 1-78.01904746-78.01904747v-52.0126976H121.9047616V407.97460267h52.01269867V147.91111147a78.01904747 78.01904747 0 0 1 78.01904746-78.01904747h402.00614614zM772.06349227 824.07619093H251.93650773v52.0126976h520.12698454v-52.0126976z m-203.0575744-312.07619093a76.9787936 76.9787936 0 0 0-26.6565088 4.26504107c-7.69787947 2.83469227-14.19946667 6.7356448-19.4527488 11.7028576a48.52784747 48.52784747 0 0 0-11.91090774 17.60629866c-2.65264747 6.7616512-4.00497813 14.04342827-4.00497813 21.84533334 0 14.25147947 3.90095253 25.90232427 11.6768512 34.95253333 7.80190507 9.05020907 20.28495253 16.85211413 37.5271616 23.45772693 5.48733973 2.13252053 10.0384512 4.16101547 13.62732693 6.0854848 3.58887573 1.92446933 6.4495744 3.87494613 8.58209494 5.87743574 2.13252053 1.97648213 3.64088853 4.05699093 4.44708586 6.1895104a18.152432 18.152432 0 0 1 1.27431147 6.683632 14.9016384 14.9016384 0 0 1-4.6811424 10.35052693 17.63230507 17.63230507 0 0 1-6.08548587 3.66689493 24.6540192 24.6540192 0 0 1-8.68612053 1.37833707c-14.5635552 0-29.04909227-3.79692693-43.48261653-11.4427936l-6.1895104-3.5108576-11.8849024 34.5104256c10.50656533 6.26753067 21.01313067 10.92266667 31.4676832 13.91339733 10.42854613 2.99073067 22.15740907 4.47309227 35.10857066 4.4730912 9.46631147 0 18.1004192-1.32632427 25.87631787-4.03098346a53.00093973 53.00093973 0 0 0 32.7159872-29.7772704 59.0344128 59.0344128 0 0 0 4.57711787-23.66577707c0-7.20375893-0.83220267-13.67933973-2.52261654-19.45274987a42.468368 42.468368 0 0 0-8.58209493-15.73384106 64.1056512 64.1056512 0 0 0-16.01991147-13.1072 147.5080128 147.5080128 0 0 0-25.04411413-11.4948064c-9.9344256-3.536864-16.90412693-7.09973333-20.9351104-10.68860907-4.05699093-3.61488213-6.08548587-7.48982827-6.08548587-11.6248384 0-3.97897173 1.8204448-7.35979733 5.51334614-10.14247573 3.64088853-2.73066667 8.76413973-4.10900267 15.34374613-4.10900374 7.02171413 0 13.47128853 0.67616533 19.4267424 2.08050774 3.97897173 0.91022187 8.061968 2.08050773 12.22298453 3.5628704l6.3195424 2.39258346 9.36228587-34.016304a111.6192512 111.6192512 0 0 0-24.23791787-8.84215893 118.97904747 118.97904747 0 0 0-28.60698346-3.3548192z m-310.77587307 4.60312427H209.93625387l47.5916192 89.46184106-52.4027936 93.3627936h48.9699552l35.23860373-66.70628586 35.26460907 66.68027946h48.9699552l-52.4027936-93.3627936 47.5916192-89.46184106h-48.29378987l-31.1296 63.24744106-31.1035936-63.22143466z m167.97500907 0h-45.7711744v182.82463466h115.80627306v-36.79898453H426.17904747v-146.02565013z m264.32853333 0h-48.29378987l47.59161814 89.46184106-52.4027936 93.3627936h48.96995626l35.26460907-66.70628586 35.23860373 66.68027946H805.87174613l-52.4027936-93.3627936 47.5916192-89.46184106h-48.29379093l-31.1035936 63.24744106-31.1296-63.22143466zM586.04007573 147.88510507L251.93650773 147.91111147v260.0634912h520.12698454v-53.28700907h-185.99741014L586.04007573 147.91111147z m78.01904854 42.3903488v86.39309226h86.445104l-86.445104-86.39309226z" fill="#2c2c2c" p-id="1080"></path></svg>