<?xml version="1.0" standalone="no"?><!DOCTYPE svg PUBLIC "-//W3C//DTD SVG 1.1//EN" "http://www.w3.org/Graphics/SVG/1.1/DTD/svg11.dtd"><svg t="1698830519367" class="icon" viewBox="0 0 1024 1024" version="1.1" xmlns="http://www.w3.org/2000/svg" p-id="1113" xmlns:xlink="http://www.w3.org/1999/xlink" width="200" height="200"><path d="M550.00533333 594.0864c0-15.4144-10.6304-26.04586667-27.37386666-26.04586667h-34.55146667v51.82613334h34.55146667c16.74346667 0 27.37386667-10.36586667 27.37386666-25.78026667z" fill="#231815" p-id="1114"></path><path d="M894.45013333 336.25173333a43.90613333 43.90613333 0 0 0-0.07253333-2.0096 45.86346667 45.86346667 0 0 0-0.1728-1.9936 38.48533333 38.48533333 0 0 0-0.10026667-0.78506666c-0.05226667-0.3936-0.10666667-0.78506667-0.1696-1.1744-0.03626667-0.21653333-0.0768-0.43306667-0.11626666-0.6496a37.904 37.904 0 0 0-0.24533334-1.26613334c-0.04053333-0.1888-0.0864-0.37546667-0.12906666-0.5632-0.10133333-0.43733333-0.20373333-0.8736-0.32-1.3056-0.05013333-0.1856-0.1056-0.37013333-0.1568-0.55466666a41.40373333 41.40373333 0 0 0-0.37653334-1.26826667c-0.0672-0.21226667-0.144-0.4224-0.2144-0.6336a38.53653333 38.53653333 0 0 0-0.40213333-1.14986667c-0.09813333-0.26133333-0.20373333-0.52053333-0.30826667-0.7808-0.128-0.32213333-0.25386667-0.64426667-0.38933333-0.96213333-0.13866667-0.32213333-0.28693333-0.63893333-0.43306667-0.95786667-0.1152-0.2496-0.2272-0.50133333-0.34773333-0.7488a39.2832 39.2832 0 0 0-0.56106667-1.09653333c-0.10133333-0.19306667-0.19946667-0.38826667-0.304-0.5792-0.21333333-0.38933333-0.4384-0.7744-0.6656-1.1584-0.096-0.16213333-0.1888-0.32533333-0.288-0.48533333a36.98986667 36.98986667 0 0 0-0.7328-1.1424c-0.10346667-0.1568-0.20373333-0.31466667-0.3104-0.4704a38.04266667 38.04266667 0 0 0-0.7584-1.06666667c-0.1248-0.17173333-0.24853333-0.34453333-0.3776-0.51413333-0.2432-0.32-0.49386667-0.63573333-0.74666666-0.9504-0.16-0.19946667-0.32106667-0.39893333-0.48533334-0.5952-0.23146667-0.27626667-0.46933333-0.54933333-0.7104-0.82026667a36.95573333 36.95573333 0 0 0-2.01493333-2.1152c-0.112-0.1088-0.2176-0.22293333-0.33173333-0.33173333l-244.97386667-233.22666667c-0.10773333-0.1024-0.21973333-0.19626667-0.32853333-0.2976a35.53386667 35.53386667 0 0 0-0.78613334-0.71146667 41.1264 41.1264 0 0 0-0.69866666-0.60586666 39.22453333 39.22453333 0 0 0-0.76693334-0.62613334 38.86293333 38.86293333 0 0 0-0.78293333-0.61546666c-0.23466667-0.17813333-0.4736-0.35093333-0.71253333-0.5248-0.29226667-0.21226667-0.58666667-0.42453333-0.8832-0.62826667-0.21653333-0.14826667-0.4384-0.2912-0.65813334-0.4352-0.32426667-0.21226667-0.6464-0.42453333-0.976-0.62613333-0.20693333-0.12693333-0.4192-0.24853333-0.62826666-0.3712-0.34453333-0.20266667-0.68906667-0.40533333-1.03786667-0.59626667-0.2144-0.11733333-0.43306667-0.22826667-0.6496-0.3424-0.34773333-0.1824-0.69546667-0.3648-1.04746667-0.53653333-0.24106667-0.11733333-0.48533333-0.22613333-0.7296-0.33813334-0.3328-0.1536-0.66346667-0.30826667-0.9984-0.4512-0.2848-0.1216-0.5728-0.2336-0.8608-0.3488-0.29973333-0.11946667-0.5984-0.24213333-0.90026666-0.3552-0.3296-0.12266667-0.6624-0.2336-0.9952-0.34773333-0.26773333-0.09173333-0.5344-0.18666667-0.8032-0.272-0.36053333-0.11413333-0.72426667-0.2176-1.08906667-0.32213333-0.24853333-0.07146667-0.49706667-0.14613333-0.74666667-0.21226667-0.37333333-0.0992-0.74986667-0.18666667-1.12746666-0.27413333-0.24853333-0.05866667-0.49706667-0.11946667-0.74666667-0.1728a37.568 37.568 0 0 0-1.1072-0.21333334c-0.2688-0.04906667-0.5376-0.10026667-0.80746667-0.144a42.40426667 42.40426667 0 0 0-1.04426666-0.1504c-0.30186667-0.04053333-0.60373333-0.08106667-0.90773334-0.1152-0.32-0.0352-0.6432-0.064-0.96426666-0.09173333a40.544 40.544 0 0 0-1.0144-0.0768 41.82506667 41.82506667 0 0 0-1.9872-0.0704c-0.14293333-0.00106667-0.2848-0.01066667-0.42773334-0.01066667-0.15253333 0-0.30186667 0.0096-0.4544 0.01173334a39.22986667 39.22986667 0 0 0-2.94506666 0.144c-0.35413333 0.02986667-0.70826667 0.06293333-1.0592 0.1024-0.26133333 0.02986667-0.52266667 0.06506667-0.78293334 0.0992-0.3296 0.04373333-0.65813333 0.08426667-0.98453333 0.13653333a39.71733333 39.71733333 0 0 0-5.6096-0.4032H230.67733333c-55.76746667 0-101.13813333 45.37066667-101.13813333 101.13813333v693.60426667c0 55.76853333 45.37066667 101.14026667 101.13813333 101.14026667h562.64533334c55.76746667 0 101.13813333-45.37173333 101.13813333-101.14026667V336.70506667c0.00106667-0.15146667-0.00853333-0.30186667-0.01066667-0.45333334zM649.48906667 195.54666667l106.90986666 101.7824h-84.70293333c-12.24426667 0-22.20586667-9.96053333-22.20586667-22.2048v-79.5776z m166.03946666 663.2992c0 12.24426667-9.9616 22.20693333-22.2048 22.20693333H230.67733333c-12.24426667 0-22.2048-9.96266667-22.2048-22.20693333v-58.54933334h607.056v58.54933334zM284.2336 724.31466667V535.08586667h73.3536c39.0688 0 62.45653333 26.84266667 62.45653333 59.00053333s-23.38773333 59.00053333-62.45653333 59.00053333h-36.41066667v71.22666667h-36.94293333z m166.90453333 0V535.08586667h73.3536c39.06773333 0 62.45653333 26.84266667 62.45653334 59.00053333s-23.3888 59.00053333-62.45653334 59.00053333h-36.41173333v71.22666667h-36.94186667zM603.95733333 568.04053333v-32.95573333h135.80906667v32.95573333h-49.4336v156.27413334h-36.94293333V568.04053333H603.95733333z m211.5712-107.53706666H208.47146667V165.2416c0-12.24426667 9.9616-22.2048 22.2048-22.2048h339.8784v132.08746667c0 55.76746667 45.37066667 101.13813333 101.1392 101.13813333h143.8336v84.24106667z" fill="#231815" p-id="1115"></path><path d="M383.1008 594.0864c0-15.4144-10.63146667-26.04586667-27.37493333-26.04586667h-34.5504v51.82613334h34.5504c16.74346667 0 27.37493333-10.36586667 27.37493333-25.78026667z" fill="#231815" p-id="1116"></path></svg>