<?xml version="1.0" standalone="no"?><!DOCTYPE svg PUBLIC "-//W3C//DTD SVG 1.1//EN" "http://www.w3.org/Graphics/SVG/1.1/DTD/svg11.dtd"><svg t="1698131817724" class="icon" viewBox="0 0 1024 1024" version="1.1" xmlns="http://www.w3.org/2000/svg" p-id="1952" xmlns:xlink="http://www.w3.org/1999/xlink" width="200" height="200"><path d="M646.144 274.9952c50.1248 55.7056 46.08 134.912 42.5472 173.1072 16.2304 29.3376 14.4896 67.3792 3.9424 95.2832a92.16 92.16 0 0 1-27.8016 39.936 271.7184 271.7184 0 0 1-43.3664 87.04c40.96 13.6704 108.544 43.6224 162.4576 86.4256h211.3536c0-93.5936-186.1632-178.6368-236.0832-187.0848-15.36-2.56-15.872-46.6944-15.872-46.6944S788.8384 476.16 798.72 413.2352c26.6752 0 43.2128-66.56 16.4352-90.2144 1.1776-24.5248 34.3552-193.8432-133.12-193.8432-88.4736 0-121.1904 47.2576-132.2496 95.488 39.936 6.7072 72.2432 23.552 96.3584 50.3296zM393.3184 670.2592A270.848 270.848 0 0 1 350.1056 583.68a91.5968 91.5968 0 0 1-27.7504-39.936c-10.5984-28.0064-12.288-66.0992 3.9424-95.4368-3.4304-38.144-6.9632-117.76 43.4176-173.2608 25.856-28.5696 60.928-45.7728 104.5504-51.456C463.2576 175.7184 430.592 129.1776 343.04 129.1776c-167.4752 0-135.2704 169.3184-134.1952 194.0992-26.6752 23.5008-10.24 90.2656 16.4352 90.2656 9.6768 62.6176 55.2448 109.5168 55.2448 109.5168s-0.3584 44.1344-15.8208 46.7456c-49.664 8.1408-235.9808 93.184-235.9808 186.7776h203.5712a560.64 560.64 0 0 1 161.024-86.3232z" p-id="1953"></path><path d="M585.1136 707.7888c-15.36-2.56-15.872-46.7456-15.872-46.7456s45.5168-46.6944 55.4496-109.568c26.6752 0 43.2128-66.56 16.4352-90.2656 1.1776-24.4224 34.3552-193.7408-133.12-193.7408S372.736 436.736 373.76 461.4656c-26.6752 23.552-10.24 90.3168 16.4352 90.3168 9.8816 62.8224 55.4496 109.5168 55.4496 109.5168s-0.2048 44.1344-15.5648 46.7456c-49.8176 8.1408-235.9808 93.184-235.9808 186.7264h627.0976c0-93.5424-186.3168-178.5856-236.0832-186.9824z" p-id="1954"></path></svg>